<?xml version="1.0"?>
<svg xmlns="http://www.w3.org/2000/svg" id="Layer_1" data-name="Layer 1" viewBox="0 0 512 512" width="512" height="512"><title>Add Photo</title><path d="M54.753,396H131.64l91.845-90.3-97.734-47.747L22,318.205v44.624A32.974,32.974,0,0,0,54.753,396Z"/><path d="M128.412,243.739l105.612,51.469,90.827-89.262a7.02,7.02,0,0,1,8.969-.719L401.155,252.9a94.036,94.036,0,0,1,10.726-.618c16.321,0,31.119,4.254,45.119,11.7V121.724C457,103.527,441.938,89,423.741,89H54.753A32.592,32.592,0,0,0,22,121.724v180.3l99.955-58.044A6.756,6.756,0,0,1,128.412,243.739Zm86.843-99a42.184,42.184,0,1,1-42.184,42.184A42.232,42.232,0,0,1,215.255,144.74Z"/><path d="M215.255,215.108a28.184,28.184,0,1,0-28.184-28.184A28.216,28.216,0,0,0,215.255,215.108Z"/><path d="M333.256,344.781a78.5,78.5,0,1,0,78.5-78.5A78.584,78.584,0,0,0,333.256,344.781ZM418,303v36h36a7,7,0,0,1,0,14H418v35a7,7,0,0,1-14,0V353H369a7,7,0,0,1,0-14h35V303a7,7,0,0,1,14,0Z"/><path d="M382.633,257.027l-52.16-36.907L151.612,396H334.658a92.566,92.566,0,0,1,47.975-138.973Z"/></svg>
