<?xml version="1.0"?>
<svg xmlns="http://www.w3.org/2000/svg" id="Layer_1" data-name="Layer 1" viewBox="0 0 512 512" width="512" height="512"><title>Photos</title><path d="M84,373.906V178H65V400H381V381H91.137A7.2,7.2,0,0,1,84,373.906Z"/><path d="M150,308.48V112H131V334H447V315H156.562A6.242,6.242,0,0,1,150,308.48Z"/><path d="M117,341.193V145H98V367H414V348H123.85A6.71,6.71,0,0,1,117,341.193Z"/><path d="M51,406.618V211H33V432H348V414H58.425A7.709,7.709,0,0,1,51,406.618Z"/><polygon points="306.733 237.371 238.28 204.196 164 247.405 164 301 241.641 301 306.733 237.371"/><path d="M164,231.221l70.474-41.006a6.545,6.545,0,0,1,6.35-.237L317.181,227.2,382.9,162.569a6.9,6.9,0,0,1,8.881-.72L479,223.734V80H164ZM303.806,117.087a32.839,32.839,0,1,1-32.838,32.839A32.877,32.877,0,0,1,303.806,117.087Z"/><polygon points="261.614 301 479 301 479 240.89 388.469 176.417 261.614 301"/><path d="M303.806,168.764a18.839,18.839,0,1,0-18.838-18.838A18.861,18.861,0,0,0,303.806,168.764Z"/></svg>
