<?xml version="1.0"?>
<svg xmlns="http://www.w3.org/2000/svg" 
id="Layer_1" data-name="Layer 1" viewBox="0 0 512 512" width="512" height="512">
    <title>Image</title>
    <polygon points="153.284 338.289 60 392.448 60 462 158.336 462 240.587 381.032 153.284 338.289"/>
    <polygon points="178.309 462 452 462 452 384.513 338.544 304.249 178.309 462"/>
    <path d="M60,376.263l89.48-51.955a6.8,6.8,0,0,1,6.481-.238l95.15,46.378,81.84-80.459a6.935,6.935,0,0,1,8.907-.72L452,367.357V185H60ZM234.285,234.4a38.844,38.844,0,1,1-38.844,38.844A38.888,38.888,0,0,1,234.285,234.4Z"/>
    <circle cx="234.285" cy="273.246" r="24.844"/>
    <path d="M72.816,145H439.184a7,7,0,0,0,0-14H72.816a7,7,0,0,0,0,14Z"/>
    <path d="M92.816,105H419.184a7,7,0,0,0,0-14H92.816a7,7,0,0,0,0,14Z"/>
    <path d="M112.816,64H399.184a7,7,0,0,0,0-14H112.816a7,7,0,0,0,0,14Z"/>
</svg>
