<?xml version="1.0"?>
<svg xmlns="http://www.w3.org/2000/svg" id="Layer_1" data-name="Layer 1" viewBox="0 0 512 512" width="512" height="512"><title>Photo</title><path d="M168.366,410H440.494C458.69,410,473,394.749,473,376.552V323.206L346.979,233.982Z"/><path d="M232.008,172.464a28.184,28.184,0,1,0,28.184,28.184A28.216,28.216,0,0,0,232.008,172.464Z"/><path d="M142.627,271.681,39,331.928v44.624C39,394.749,53.309,410,71.506,410h76.888L240.3,319.567Z"/><path d="M440.494,102H71.506C53.309,102,39,117.251,39,135.448v180.3L138.814,257.7a6.485,6.485,0,0,1,6.316-.238l105.577,51.47,90.757-89.262a6.831,6.831,0,0,1,8.83-.72L473,306.049v-170.6C473,117.251,458.69,102,440.494,102ZM232.008,242.832a42.184,42.184,0,1,1,42.184-42.184A42.232,42.232,0,0,1,232.008,242.832Z"/></svg>
