<?xml version="1.0"?>
<svg xmlns="http://www.w3.org/2000/svg" id="Layer_1" data-name="Layer 1" viewBox="0 0 512 512" width="512" height="512"><title>Sd card</title><path d="M358,183H154V411H358ZM324,357a7,7,0,0,1-7,7H194a7,7,0,0,1-7-7V296a7,7,0,0,1,7-7H317a7,7,0,0,1,7,7Z"/><rect x="201" y="303" width="109" height="47"/><rect x="154" y="133" width="204" height="36"/><path d="M115.5,43C102.817,43,92,52.818,92,65.5v67.261L112.6,141a7,7,0,0,1,4.4,6.5v121a7,7,0,0,1-4.4,6.5L92,283.239V446.5A23.89,23.89,0,0,0,115.5,470h281c12.683,0,22.5-10.818,22.5-23.5V253.089l-18.791-8.17A7,7,0,0,1,396,238.5v-67a7,7,0,0,1,4.209-6.419L419,156.911V111.593L349.594,43ZM372,125.661v289.4c0,.771.357,1.838.357,2.712a7.28,7.28,0,0,1-7.094,7.23H146.737c-3.866,0-6.737-3.593-6.737-7.459V125.661A6.5,6.5,0,0,1,146.737,119H364.81C368.676,119,372,121.8,372,125.661Z"/></svg>
