<?xml version="1.0"?>
<svg xmlns="http://www.w3.org/2000/svg" id="Layer_1" data-name="Layer 1" viewBox="0 0 512 512" width="512" height="512"><title>Picture</title><polygon points="360 291.032 301.486 249.459 221.365 328 360 328 360 291.032"/><path d="M244.148,218.275a10.381,10.381,0,1,0,10.38,10.381A10.393,10.393,0,0,0,244.148,218.275Z"/><path d="M360,184H152v95.365l44.172-25.589a7.1,7.1,0,0,1,6.631-.237l49.927,24.329,43.092-42.341a7.035,7.035,0,0,1,8.979-.72L360,273.875ZM244.148,253.037a24.381,24.381,0,1,1,24.38-24.381A24.408,24.408,0,0,1,244.148,253.037Z"/><polygon points="152 295.549 152 328 201.393 328 242.099 288.123 199.967 267.757 152 295.549"/><path d="M447.769,197.117a7,7,0,0,0-11.707,0l-53.677,81.844a7.182,7.182,0,0,0-.306,7.265A7.1,7.1,0,0,0,388.238,290h44.618a187.307,187.307,0,0,1-63.692,115.563c-32.945,28.249-74.319,44.4-113.513,44.4-25.555,0-52.282-6.917-77.291-19.958a192.239,192.239,0,0,1-65.885-56.525,7,7,0,1,0-11.295,8.263A206.276,206.276,0,0,0,171.887,442.4c27,14.078,55.965,21.518,83.764,21.518,42.486,0,87.181-17.331,122.626-47.724A201.647,201.647,0,0,0,447,290h48.594a7.1,7.1,0,0,0,6.159-3.774,7.182,7.182,0,0,0-.306-7.265Z"/><path d="M129.921,225.774A7.1,7.1,0,0,0,123.762,222H79.144a187.307,187.307,0,0,1,63.692-115.563c32.945-28.249,74.319-44.4,113.513-44.4,25.555,0,52.282,6.917,77.291,19.958a192.239,192.239,0,0,1,65.885,56.525,7,7,0,1,0,11.3-8.263A206.276,206.276,0,0,0,340.113,69.6c-27-14.078-55.965-21.518-83.764-21.518-42.486,0-87.181,17.331-122.626,47.724A201.647,201.647,0,0,0,65,222H16.407a7.122,7.122,0,0,0-5.853,10.989l53.677,81.869a7,7,0,0,0,11.707.019l53.677-81.891A7.085,7.085,0,0,0,129.921,225.774Z"/></svg>
