<?xml version="1.0"?>
<svg xmlns="http://www.w3.org/2000/svg" id="Layer_1" data-name="Layer 1" viewBox="0 0 512 512" width="512" height="512"><title>Frame2</title><path d="M53,165.082a7,7,0,0,0,7-7V78h80.278a7,7,0,0,0,0-14H53.043A6.907,6.907,0,0,0,46,70.846v87.236A7,7,0,0,0,53,165.082Z"/><path d="M458.957,64H371.722a7,7,0,0,0,0,14H452v80.082a7,7,0,0,0,14,0V70.846A6.907,6.907,0,0,0,458.957,64Z"/><path d="M459,346.918a7,7,0,0,0-7,7V434H371.722a7,7,0,0,0,0,14h87.235A6.907,6.907,0,0,0,466,441.154V353.918A7,7,0,0,0,459,346.918Z"/><path d="M140.278,434H60V353.918a7,7,0,0,0-14,0v87.236A6.907,6.907,0,0,0,53.043,448h87.235a7,7,0,1,0,0-14Z"/><path d="M239.842,235.417a16.7,16.7,0,1,0-16.7-16.7A16.714,16.714,0,0,0,239.842,235.417Z"/><polygon points="400 302.444 317.582 243.926 202.566 357 400 357 400 302.444"/><path d="M112,292.268l63.866-37.1a6.794,6.794,0,0,1,6.475-.237L252,288.886,311.991,229.9a6.933,6.933,0,0,1,8.905-.719L400,285.288V155H112ZM239.842,188.026a30.7,30.7,0,1,1-30.7,30.695A30.729,30.729,0,0,1,239.842,188.026Z"/><polygon points="179.669 269.149 112 308.452 112 357 182.593 357 241.481 299.233 179.669 269.149"/></svg>
