<?xml version="1.0"?>
<svg xmlns="http://www.w3.org/2000/svg" id="Layer_1" data-name="Layer 1" viewBox="0 0 512 512" width="512" height="512"><title>Image2</title><path d="M94,297.888l72.75-42.114a7.278,7.278,0,0,1,6.718-.237l78.29,38.147,67.419-66.231a7.09,7.09,0,0,1,9.018-.72L418,290.257V142H94ZM237.967,180.95A33.446,33.446,0,1,1,204.521,214.4,33.484,33.484,0,0,1,237.967,180.95Z"/><polygon points="194.38 370 418 370 418 307.413 324.881 241.703 194.38 370"/><circle cx="237.967" cy="214.396" r="19.445"/><polygon points="170.539 269.755 94 314.071 94 370 174.407 370 241.066 304.257 170.539 269.755"/><path d="M57,143.323a7,7,0,0,0-7,7V361.677a7,7,0,0,0,14,0V150.323A7,7,0,0,0,57,143.323Z"/><path d="M27,158.323a7,7,0,0,0-7,7V346.677a7,7,0,0,0,14,0V165.323A7,7,0,0,0,27,158.323Z"/><path d="M455,143.323a7,7,0,0,0-7,7V361.677a7,7,0,0,0,14,0V150.323A7,7,0,0,0,455,143.323Z"/><path d="M485,158.323a7,7,0,0,0-7,7V346.677a7,7,0,0,0,14,0V165.323A7,7,0,0,0,485,158.323Z"/></svg>
