<?xml version="1.0"?>
<svg xmlns="http://www.w3.org/2000/svg" id="Layer_1" data-name="Layer 1" viewBox="0 0 512 512" width="512" height="512"><title>Image Chat</title><path d="M208.964,294H368.983c9.648,0,17.017-7.9,17.017-17.544V245.19l-74.09-52.631Z"/><path d="M41,358H149.819a6.821,6.821,0,0,1,6.819,5.211L179.7,462.462l92.857-102.329A6.846,6.846,0,0,1,277.743,358H471V50H41Zm71-228.5A31.5,31.5,0,0,1,143.5,98H369.5A31.5,31.5,0,0,1,401,129.5V277.5A31.5,31.5,0,0,1,369.5,309H143.5A31.5,31.5,0,0,1,112,277.5Z"/><path d="M143.017,294h45.975l52.8-51.8-55.019-26.9L126,250.692v25.764C126,286.1,133.369,294,143.017,294Z"/><path d="M241.308,183.279a14.546,14.546,0,1,0-14.547-14.546A14.563,14.563,0,0,0,241.308,183.279Z"/><path d="M189.281,201.087l62.921,30.68,54.19-53.32a6.834,6.834,0,0,1,8.833-.72L386,228.034V128.805c0-9.648-7.369-16.805-17.017-16.805H143.017C133.369,112,126,119.157,126,128.805v105.7l56.957-33.183A6.5,6.5,0,0,1,189.281,201.087Zm52.027-60.9a28.546,28.546,0,1,1-28.547,28.546A28.578,28.578,0,0,1,241.308,140.187Z"/></svg>
